<svg xmlns="http://www.w3.org/2000/svg" width="192" height="44" fill="none" viewBox="0 0 192 44">
  <g clip-path="url(#a)">
    <path fill="#1A271F" d="M49.351 20.055a.332.332 0 0 1-.243-.101.328.328 0 0 1-.1-.243V.372c0-.095.033-.177.1-.244a.335.335 0 0 1 .243-.1h3.355c.096 0 .177.034.244.1.067.067.1.149.1.244v8.01c0 .058.02.09.058.1.038.01.076-.005.115-.042L59.845.23a.543.543 0 0 1 .43-.202h3.785c.153 0 .248.043.287.13.038.085.019.186-.058.3L57.896 8.61c-.058.076-.067.143-.029.2l6.766 10.843c.039.115.057.18.057.2 0 .134-.095.2-.286.2H60.62c-.191 0-.326-.076-.402-.228l-5.103-8.24c-.02-.038-.048-.057-.086-.057-.039 0-.077.02-.115.058l-1.806 2.26a.435.435 0 0 0-.058.172v5.692a.328.328 0 0 1-.1.243.332.332 0 0 1-.244.1h-3.355Zm18.436 0a.332.332 0 0 1-.243-.101.328.328 0 0 1-.1-.243V.372c0-.095.032-.177.1-.244a.335.335 0 0 1 .243-.1h3.354c.096 0 .177.034.244.1.067.067.1.149.1.244V16.45c0 .095.048.143.144.143h9.375c.095 0 .177.034.244.1s.1.148.1.243v2.775a.328.328 0 0 1-.1.243.334.334 0 0 1-.244.1H67.787ZM98.264 3.147a.33.33 0 0 1-.1.243.332.332 0 0 1-.244.1h-9.404c-.096 0-.144.048-.144.144v4.434c0 .095.048.143.144.143h6.164c.095 0 .177.033.244.1.066.066.1.148.1.243v2.775a.333.333 0 0 1-.1.243.333.333 0 0 1-.244.1h-6.164c-.096 0-.144.048-.144.143v4.635c0 .095.048.143.144.143h9.404c.096 0 .176.034.243.1.068.066.1.148.1.243v2.775a.328.328 0 0 1-.1.243.332.332 0 0 1-.243.1H84.674a.332.332 0 0 1-.244-.1.328.328 0 0 1-.1-.243V.372c0-.095.033-.177.1-.244a.335.335 0 0 1 .244-.1H97.92c.096 0 .176.034.243.1.068.067.1.149.1.244v2.775ZM114.463.258a.45.45 0 0 1 .402-.23h3.354c.095 0 .176.034.243.1a.333.333 0 0 1 .101.244v19.34a.33.33 0 0 1-.101.242.332.332 0 0 1-.243.1h-3.354a.335.335 0 0 1-.245-.1.328.328 0 0 1-.1-.243V7.095c0-.076-.019-.115-.057-.115-.038 0-.077.029-.115.087l-3.039 4.748a.448.448 0 0 1-.401.23h-1.692a.45.45 0 0 1-.402-.23l-3.039-4.748c-.037-.058-.076-.082-.114-.072-.038.01-.057.052-.057.128v12.588a.325.325 0 0 1-.101.243.332.332 0 0 1-.244.1h-3.354a.332.332 0 0 1-.243-.1.33.33 0 0 1-.101-.243V.372c0-.095.034-.177.101-.244a.334.334 0 0 1 .243-.1h3.354a.45.45 0 0 1 .402.23l4.301 6.666c.057.113.115.113.172 0l4.329-6.666ZM130.834 0c1.261 0 2.37.258 3.325.773a5.442 5.442 0 0 1 2.223 2.188c.525.944.788 2.027.788 3.247 0 1.201-.272 2.26-.817 3.176-.545.915-1.309 1.625-2.294 2.131-.984.505-2.116.758-3.397.758h-4.072c-.095 0-.143.048-.143.143v7.295a.328.328 0 0 1-.1.243.332.332 0 0 1-.243.1h-3.355a.332.332 0 0 1-.244-.1.328.328 0 0 1-.1-.243V.344a.33.33 0 0 1 .1-.244.331.331 0 0 1 .244-.1h8.085Zm-.602 9.04c.879 0 1.587-.253 2.121-.758.536-.505.803-1.168.803-1.988 0-.839-.267-1.516-.803-2.031-.534-.516-1.242-.772-2.121-.772h-3.642c-.095 0-.143.047-.143.143v5.263c0 .095.048.143.143.143h3.642ZM151.677.372c0-.095.034-.177.1-.244a.337.337 0 0 1 .245-.1h3.354c.095 0 .177.034.243.1a.333.333 0 0 1 .101.244v19.34a.33.33 0 0 1-.101.242.33.33 0 0 1-.243.1h-3.239c-.192 0-.326-.076-.402-.228L144.309 7.58c-.038-.057-.077-.08-.114-.072-.039.01-.058.053-.058.13l.058 12.072a.33.33 0 0 1-.101.243.33.33 0 0 1-.244.1h-3.354a.334.334 0 0 1-.244-.1.332.332 0 0 1-.1-.243V.372c0-.095.034-.177.1-.244a.337.337 0 0 1 .244-.1h3.239c.191 0 .326.076.402.23l7.397 12.187c.038.056.076.08.115.071.038-.009.057-.052.057-.128L151.677.372Zm21.79 2.775a.33.33 0 0 1-.1.243.332.332 0 0 1-.244.1h-9.404c-.095 0-.143.048-.143.144v4.434c0 .095.048.143.143.143h6.164a.33.33 0 0 1 .244.1.333.333 0 0 1 .101.243v2.775a.33.33 0 0 1-.101.243.33.33 0 0 1-.244.1h-6.164c-.095 0-.143.048-.143.143v4.635c0 .095.048.143.143.143h9.404c.096 0 .177.034.244.1s.1.148.1.243v2.775a.328.328 0 0 1-.1.243.332.332 0 0 1-.244.1h-13.246a.332.332 0 0 1-.243-.1.328.328 0 0 1-.1-.243V.372c0-.095.033-.177.1-.244a.334.334 0 0 1 .243-.1h13.246c.096 0 .177.034.244.1.067.067.1.149.1.244v2.775Zm14.307 16.908a.405.405 0 0 1-.401-.258l-3.584-7.924c-.039-.076-.096-.115-.173-.115h-2.666c-.095 0-.143.048-.143.143v7.81a.332.332 0 0 1-.1.243.334.334 0 0 1-.244.1h-3.354a.335.335 0 0 1-.245-.1.332.332 0 0 1-.1-.243V.372c0-.095.034-.177.1-.244a.337.337 0 0 1 .245-.1h8.199c1.223 0 2.299.249 3.226.745a5.22 5.22 0 0 1 2.15 2.116c.507.916.759 1.975.759 3.176 0 1.297-.324 2.408-.974 3.333-.65.925-1.558 1.578-2.724 1.96-.096.038-.124.104-.086.2l3.899 8.096a.426.426 0 0 1 .058.172c0 .152-.106.229-.316.229h-3.526ZM180.95 3.49c-.095 0-.143.047-.143.143v4.891c0 .095.048.143.143.143h3.756c.803 0 1.458-.238 1.964-.715s.76-1.096.76-1.859c0-.764-.254-1.388-.76-1.875-.506-.485-1.161-.728-1.964-.728h-3.756Z"/>
    <path fill="#AD9200" d="M49.351 42.971a.332.332 0 0 1-.243-.1.328.328 0 0 1-.1-.243v-19.34a.33.33 0 0 1 .1-.243.334.334 0 0 1 .243-.1h3.355c.096 0 .177.034.244.1.067.067.1.148.1.244v16.077c0 .096.048.143.144.143h9.375a.33.33 0 0 1 .243.101c.068.066.1.148.1.243v2.775a.328.328 0 0 1-.1.243.332.332 0 0 1-.243.1H49.351Zm28.614-16.907a.33.33 0 0 1-.1.242.332.332 0 0 1-.244.101h-9.404c-.096 0-.143.048-.143.143v4.434c0 .096.047.143.143.143h6.164a.33.33 0 0 1 .244.1.333.333 0 0 1 .1.244v2.775a.33.33 0 0 1-.1.243.33.33 0 0 1-.244.1h-6.164c-.096 0-.143.047-.143.143v4.634c0 .096.047.143.143.143h9.404c.096 0 .177.034.244.101.067.066.1.148.1.243v2.775a.328.328 0 0 1-.1.243.332.332 0 0 1-.244.1H64.375a.332.332 0 0 1-.243-.1.328.328 0 0 1-.1-.243v-19.34a.33.33 0 0 1 .1-.243.335.335 0 0 1 .243-.1h13.246c.096 0 .177.034.244.1.067.067.1.148.1.244v2.775Zm1.777 16.907a.332.332 0 0 1-.243-.1.328.328 0 0 1-.1-.243v-19.34a.33.33 0 0 1 .1-.243.335.335 0 0 1 .243-.1h3.355c.096 0 .177.034.244.1.067.067.1.148.1.244v19.339a.328.328 0 0 1-.1.243.332.332 0 0 1-.244.1h-3.355Zm14.107-20.054c1.26 0 2.37.257 3.325.772a5.441 5.441 0 0 1 2.222 2.189c.526.944.789 2.026.789 3.246 0 1.202-.272 2.26-.817 3.177a5.57 5.57 0 0 1-2.294 2.13c-.984.506-2.117.759-3.397.759h-4.072c-.095 0-.143.048-.143.143v7.295a.328.328 0 0 1-.1.243.332.332 0 0 1-.244.1h-3.355a.332.332 0 0 1-.243-.1.328.328 0 0 1-.1-.243V23.26a.33.33 0 0 1 .1-.243.331.331 0 0 1 .243-.1h8.085Zm-.602 9.04c.879 0 1.586-.253 2.121-.758.535-.505.803-1.168.803-1.989 0-.838-.268-1.516-.803-2.03-.535-.516-1.242-.773-2.121-.773h-3.642c-.095 0-.143.048-.143.143v5.264c0 .095.048.143.143.143h3.642Zm7.569 11.014a.332.332 0 0 1-.244-.1.328.328 0 0 1-.1-.243v-3.09c0-.152.048-.295.143-.43l9.26-12.53c.039-.038.044-.075.015-.114-.028-.038-.072-.057-.129-.057h-8.945a.332.332 0 0 1-.244-.1.33.33 0 0 1-.1-.243v-2.775c0-.096.033-.177.1-.244a.335.335 0 0 1 .244-.1h13.274c.096 0 .177.034.244.1.067.067.1.148.1.244v3.089a.724.724 0 0 1-.143.429l-9.261 12.53a.122.122 0 0 0 0 .115c.02.039.057.057.115.057h8.945c.096 0 .177.034.244.101.067.066.1.148.1.243v2.775a.328.328 0 0 1-.1.243.332.332 0 0 1-.244.1h-13.274Zm15.425 0a.336.336 0 0 1-.245-.1.328.328 0 0 1-.1-.243v-19.34a.339.339 0 0 1 .345-.344h3.354a.338.338 0 0 1 .243.101.333.333 0 0 1 .101.244v19.339a.33.33 0 0 1-.101.243.33.33 0 0 1-.243.1h-3.354Zm12.873.229c-1.473 0-2.772-.295-3.9-.887-1.127-.59-2.001-1.416-2.623-2.475-.621-1.057-.932-2.283-.932-3.675v-6.409c0-1.392.311-2.623.932-3.69a6.325 6.325 0 0 1 2.623-2.475c1.128-.582 2.427-.872 3.9-.872 1.452 0 2.738.286 3.856.858 1.118.572 1.988 1.35 2.609 2.33.621.984.932 2.075.932 3.277v.2a.333.333 0 0 1-.101.244.334.334 0 0 1-.243.1h-3.354a.336.336 0 0 1-.245-.1.332.332 0 0 1-.1-.244v-.085c0-.878-.306-1.617-.918-2.218-.611-.6-1.424-.9-2.436-.9-1.033 0-1.859.318-2.48.957s-.932 1.474-.932 2.504v6.637c0 1.03.335 1.865 1.003 2.504.669.638 1.52.957 2.552.957.994 0 1.787-.262 2.38-.786.592-.524.888-1.254.888-2.19v-1.286c0-.095-.048-.143-.143-.143h-3.211a.333.333 0 0 1-.243-.1.33.33 0 0 1-.102-.244v-2.632c0-.095.034-.176.102-.242a.33.33 0 0 1 .243-.1h6.996a.33.33 0 0 1 .243.1.33.33 0 0 1 .101.242v3.777c0 1.45-.306 2.708-.918 3.776a6.061 6.061 0 0 1-2.595 2.446c-1.118.562-2.412.844-3.884.844Z"/>
    <path fill="#1A271F" d="M144.884 41.055c-.057.095-.038.143.058.143h9.002c.191 0 .286.095.286.286v1.201c0 .191-.095.286-.286.286h-11.44c-.191 0-.286-.095-.286-.285v-1.202a.47.47 0 0 1 .143-.344c.65-.763 2.112-2.556 4.387-5.378l2.121-2.632c1.797-2.27 2.695-4.034 2.695-5.293 0-1.01-.344-1.821-1.032-2.432-.688-.61-1.587-.914-2.695-.914-1.089 0-1.968.31-2.638.93-.669.619-.993 1.434-.975 2.445v.887c0 .19-.095.286-.286.286h-1.491c-.192 0-.287-.095-.287-.286v-1.145c.038-1.468.588-2.65 1.649-3.547 1.061-.897 2.403-1.344 4.028-1.344 1.147 0 2.16.219 3.039.657.879.44 1.558 1.044 2.036 1.817.478.773.716 1.645.716 2.618 0 1.62-.898 3.576-2.695 5.865-.936 1.2-2.742 3.413-5.418 6.636l-.631.745Zm23.395-5.436c.191 0 .287.095.287.286v1.258c0 .191-.096.287-.287.287h-1.233c-.076 0-.114.038-.114.114v5.121c0 .191-.096.286-.287.286h-1.463c-.191 0-.286-.095-.286-.285v-5.122c0-.076-.038-.114-.115-.114h-8.572c-.191 0-.287-.096-.287-.287v-1.058a.9.9 0 0 1 .086-.343l5.877-12.616c.058-.134.163-.2.316-.2h1.52c.095 0 .167.033.215.099.048.067.052.148.014.244l-5.705 12.187c-.02.038-.02.071 0 .1a.096.096 0 0 0 .085.043h6.451c.077 0 .115-.039.115-.115v-4.606c0-.19.095-.286.286-.286h1.463c.191 0 .287.095.287.286v4.606c0 .076.038.115.114.115h1.233Zm1.835 7.352c-.211 0-.287-.105-.229-.315l6.336-19.482c.057-.153.172-.229.344-.229h1.434c.21 0 .286.105.228.315l-6.336 19.482c-.056.153-.171.23-.343.23h-1.434Zm13.246 0c-.096 0-.167-.033-.215-.1-.048-.066-.052-.148-.015-.243l6.624-17.766c.018-.038.018-.072 0-.1a.097.097 0 0 0-.086-.043h-7.742c-.076 0-.114.038-.114.114v1.317c0 .19-.095.286-.287.286h-1.175c-.192 0-.287-.096-.287-.286l.028-2.919c0-.19.096-.286.287-.286h11.297c.191 0 .286.095.286.286v1.316c0 .076-.019.191-.057.343l-6.595 17.852c-.057.153-.171.23-.343.23h-1.606ZM11.824 30.14c.288-.052.579-.104.87-.154.653 1.272 2.537 2.152 4.832 2.152s4.173-.881 4.822-2.157l.861.153v4.592a2.242 2.242 0 0 1-2.229 2.23h-6.924a2.245 2.245 0 0 1-2.233-2.23l.001-4.587Zm5.701-2.671a10.113 10.113 0 0 0 3.454-.61v2.159c-.037.632-1.37 1.512-3.457 1.512-2.088 0-3.422-.88-3.464-1.51v-2.164c1.11.405 2.285.612 3.467.613ZM1.612 38.215a7.566 7.566 0 0 1 4.237-6.64v9.788H1.612v-3.148Zm5.85 3.146V30.964c.591-.128 1.59-.322 2.749-.534v4.296c.003 2.105 1.737 3.835 3.845 3.838h6.923c2.108-.004 3.84-1.735 3.842-3.838v-4.3c1.168.215 2.174.41 2.768.54v10.397L7.461 41.36Zm25.969 0h-4.23v-9.78a7.564 7.564 0 0 1 4.23 6.634v3.146Zm-7.414-23.794c-.104 4.577-3.903 8.287-8.492 8.293a8.34 8.34 0 0 1-3.904-.95 8.514 8.514 0 0 1-3.938-4.244 8.313 8.313 0 0 1-.666-3.099H7.412a9.888 9.888 0 0 0 .787 3.727 10.121 10.121 0 0 0 4.245 4.797v2.305c-1.704.298-5.468.968-6.067 1.188l-.006.003a.91.91 0 0 0-.05.02C2.478 31.045 0 34.417 0 38.215v3.952c0 .44.364.804.806.804h33.43a.808.808 0 0 0 .806-.803v-3.953c0-3.798-2.478-7.17-6.315-8.605l-.042-.017-.006-.003c-.454-.17-2.65-.584-4.492-.916l-.024-.004c-.582-.105-1.128-.201-1.57-.279v-2.297a10.02 10.02 0 0 0 5.028-8.526l-1.604-.001Z"/>
    <path fill="#AD9200" d="M27.985 17.568h-1.968v-.001H7.052a2.878 2.878 0 0 1-2.864-2.857v-.11a2.87 2.87 0 0 1 2.337-2.807 10.996 10.996 0 0 1 7.687-10.04A2.248 2.248 0 0 1 16.407 0h2.24a2.24 2.24 0 0 1 2.195 1.76 11 11 0 0 1 7.671 10.033A2.87 2.87 0 0 1 30.85 14.6v.11a2.878 2.878 0 0 1-2.864 2.858ZM15.941 1.807a.642.642 0 0 0-.18.48v.061l.244 5.4c0 .833.686 1.518 1.52 1.518s1.52-.685 1.52-1.517l.245-5.413c0-.008.004-.013.004-.02v-.04a.647.647 0 0 0-.646-.667h-2.24a.64.64 0 0 0-.467.198ZM14.2 3.448a9.393 9.393 0 0 0-6.07 8.294h18.777a9.393 9.393 0 0 0-6.055-8.289l-.195 4.366a3.143 3.143 0 0 1-3.13 3.005 3.141 3.141 0 0 1-3.129-3.005L14.2 3.45Zm-8.4 11.26c0 .687.565 1.25 1.252 1.251h20.933a1.258 1.258 0 0 0 1.251-1.25v-.11c0-.684-.565-1.247-1.25-1.248H7.051A1.257 1.257 0 0 0 5.8 14.6v.11Z"/>
  </g>
  <defs>
    <clipPath id="a">
      <path fill="#fff" d="M0 0h192v44H0z"/>
    </clipPath>
  </defs>
</svg>
