<svg xmlns="http://www.w3.org/2000/svg" width="17" height="16" fill="none" viewBox="0 0 17 16">
  <g clip-path="url(#a)">
    <path stroke="#AD9200" stroke-linecap="round" stroke-linejoin="round" d="M8 14.5H2a1 1 0 0 1-1-1v-12a1 1 0 0 1 1-1h10a1 1 0 0 1 1 1v4"/>
    <path stroke="#AD9200" stroke-linecap="round" stroke-linejoin="round" d="M13 11.5a3 3 0 1 0 0-6 3 3 0 0 0 0 6Z"/>
    <path stroke="#AD9200" stroke-linecap="round" stroke-linejoin="round" d="M15 10.736V15.5l-2-1-2 1v-4.764M4 4.5h5m-5 3h3m-3 3h3"/>
  </g>
  <defs>
    <clipPath id="a">
      <path fill="#fff" d="M.5 0h16v16H.5z"/>
    </clipPath>
  </defs>
</svg>
