<svg width="17" height="16" viewBox="0 0 17 16" fill="none" xmlns="http://www.w3.org/2000/svg">
<g clip-path="url(#clip0_28_1839)">
<path d="M15.9 4.5H13.9" stroke="#AD9200" stroke-linecap="round" stroke-linejoin="round"/>
<path d="M4.90002 3C4.90002 2.17157 4.22845 1.5 3.40002 1.5C2.5716 1.5 1.90002 2.17157 1.90002 3V13C1.90002 13.8284 2.5716 14.5 3.40002 14.5C4.22845 14.5 4.90002 13.8284 4.90002 13V3Z" stroke="#AD9200" stroke-linecap="round" stroke-linejoin="round"/>
<path d="M7.90002 3C7.90002 2.17157 7.22845 1.5 6.40002 1.5C5.5716 1.5 4.90002 2.17157 4.90002 3V13C4.90002 13.8284 5.5716 14.5 6.40002 14.5C7.22845 14.5 7.90002 13.8284 7.90002 13V3Z" stroke="#AD9200" stroke-linecap="round" stroke-linejoin="round"/>
<path d="M10.9 3C10.9 2.17157 10.2285 1.5 9.40002 1.5C8.5716 1.5 7.90002 2.17157 7.90002 3V13C7.90002 13.8284 8.5716 14.5 9.40002 14.5C10.2285 14.5 10.9 13.8284 10.9 13V3Z" stroke="#AD9200" stroke-linecap="round" stroke-linejoin="round"/>
<path d="M13.9 3C13.9 2.17157 13.2285 1.5 12.4 1.5C11.5716 1.5 10.9 2.17157 10.9 3V13C10.9 13.8284 11.5716 14.5 12.4 14.5C13.2285 14.5 13.9 13.8284 13.9 13V3Z" stroke="#AD9200" stroke-linecap="round" stroke-linejoin="round"/>
</g>
<defs>
<clipPath id="clip0_28_1839">
<rect width="16" height="16" fill="white" transform="translate(0.400024)"/>
</clipPath>
</defs>
</svg>
