<svg xmlns="http://www.w3.org/2000/svg" width="16" height="16" fill="none" viewBox="0 0 16 16">
  <g clip-path="url(#a)">
    <path stroke="#fff" stroke-linecap="round" stroke-linejoin="round" d="m9.178 10.529-1.059 1.325a11.187 11.187 0 0 1-3.973-3.973l1.325-1.059a.9.9 0 0 0 .26-1.068L4.524 3.036a.9.9 0 0 0-1.049-.506l-2.3.6a.9.9 0 0 0-.668 1 13.35 13.35 0 0 0 11.367 11.361.9.9 0 0 0 1-.668l.6-2.3a.9.9 0 0 0-.506-1.048l-2.722-1.205a.9.9 0 0 0-1.068.259ZM8.5 4A3.5 3.5 0 0 1 12 7.5M8.5 1A6.5 6.5 0 0 1 15 7.5"/>
  </g>
  <defs>
    <clipPath id="a">
      <path fill="#fff" d="M0 0h16v16H0z"/>
    </clipPath>
  </defs>
</svg>
