<svg xmlns="http://www.w3.org/2000/svg" width="24" height="24" fill="none" viewBox="0 0 24 24">
  <g clip-path="url(#a)">
    <path stroke="#AD9200" stroke-linecap="round" stroke-linejoin="round" stroke-width="2" d="m14.308 15.19-2.141 2.11a17.407 17.407 0 0 1-3.092-2.376 17.61 17.61 0 0 1-2.375-3.09l2.11-2.141a.918.918 0 0 0 .189-1L6.8 3.56a.918.918 0 0 0-1.078-.525L1.688 4.1A.919.919 0 0 0 1 5.019 19.4 19.4 0 0 0 6.49 17.51 19.4 19.4 0 0 0 18.986 23a.917.917 0 0 0 .917-.688l1.066-4.036a.917.917 0 0 0-.524-1.078L15.316 15a.917.917 0 0 0-1.008.19ZM14 1a9 9 0 0 1 9 9m-9-5a5 5 0 0 1 5 5"/>
  </g>
  <defs>
    <clipPath id="a">
      <path fill="#fff" d="M0 0h24v24H0z"/>
    </clipPath>
  </defs>
</svg>
