<svg width="16" height="16" viewBox="0 0 16 16" fill="none" xmlns="http://www.w3.org/2000/svg">
<path d="M13 12H3" stroke="#AD9200" stroke-linecap="round" stroke-linejoin="round"/>
<path d="M6 5.5C6 6.5 5.5 7 4 7H3" stroke="#AD9200"/>
<path d="M10 5.5C10 6.5 10.5 7 12 7H13" stroke="#AD9200"/>
<path d="M13 7V12C13 12.5 13.5 13 14 13C14.5 13 15 12.5 15 12V7C15 6.5 14.5 6 14 6C13.5 6 13 6.5 13 7Z" stroke="#AD9200"/>
<path d="M1 7V12C1 12.5 1.5 13 2 13C2.5 13 3 12.5 3 12V7C3 6.5 2.5 6 2 6C1.5 6 1 6.5 1 7Z" stroke="#AD9200"/>
<path d="M5.14286 5L10.8571 5C11.5 5 12 4.58345 12 4C12 3.41655 11.5 3 10.8571 3L5.14286 3C4.5 3 4 3.41655 4 4C4 4.58345 4.5 5 5.14286 5Z" stroke="#AD9200"/>
</svg>
