<svg xmlns="http://www.w3.org/2000/svg" width="17" height="17" fill="none" viewBox="0 0 17 17">
  <g clip-path="url(#a)">
    <path stroke="#AD9200" stroke-linecap="round" stroke-linejoin="round" d="M7 1C3.686 1 1 3.239 1 6c0 1.021.369 1.97 1 2.762V12.5l2.573-1.93A6.98 6.98 0 0 0 7 11c3.314 0 6-2.239 6-5s-2.686-5-6-5Z"/>
    <path stroke="#AD9200" stroke-linecap="round" stroke-linejoin="round" d="M5.719 13.004C6.808 13.927 8.324 14.5 10 14.5c.783 0 1.529-.129 2.215-.356L15 16v-3.738c.631-.792 1-1.74 1-2.762a4.36 4.36 0 0 0-.799-2.495"/>
  </g>
  <defs>
    <clipPath id="a">
      <path fill="#fff" d="M.5.5h16v16H.5z"/>
    </clipPath>
  </defs>
</svg>
